HIERARCHY
ROOT Hips
{
 OFFSET 0.000000 0.000000 0.000000
 CHANNELS 6 Xposition Yposition Zposition Yrotation Xrotation Zrotation
 JOINT Chest
 {
  OFFSET 0.000000 14.634200 -0.016200
  CHANNELS 3 Yrotation Xrotation Zrotation
  JOINT Chest2
  {
   OFFSET 0.000000 8.932900 0.033000
   CHANNELS 3 Yrotation Xrotation Zrotation
   JOINT Chest3
   {
    OFFSET 0.000000 8.892300 0.000000
    CHANNELS 3 Yrotation Xrotation Zrotation
    JOINT Chest4
    {
     OFFSET 0.000000 8.883200 0.000000
     CHANNELS 3 Yrotation Xrotation Zrotation
     JOINT Neck
     {
      OFFSET 0.000000 13.173600 0.000000
      CHANNELS 3 Yrotation Xrotation Zrotation
      JOINT Head
      {
       OFFSET 0.000000 8.324600 0.069800
       CHANNELS 3 Yrotation Xrotation Zrotation
       End Site
       {
        OFFSET 0.000000 15.692400 0.036900
       }
      }
     }
     JOINT RightCollar
     {
      OFFSET -2.619200 8.772200 0.000000
      CHANNELS 3 Yrotation Xrotation Zrotation
      JOINT RightShoulder
      {
       OFFSET -12.922000 0.000000 0.000000
       CHANNELS 3 Yrotation Xrotation Zrotation
       JOINT RightElbow
       {
        OFFSET 0.000000 -27.880900 0.000000
        CHANNELS 3 Yrotation Xrotation Zrotation
        JOINT RightWrist
        {
         OFFSET 0.000000 -22.758700 0.008200
         CHANNELS 3 Yrotation Xrotation Zrotation
         End Site
         {
          OFFSET 0.000000 -16.965000 0.000000
         }
        }
       }
      }
     }
     JOINT LeftCollar
     {
      OFFSET 2.619200 8.772200 0.000000
      CHANNELS 3 Yrotation Xrotation Zrotation
      JOINT LeftShoulder
      {
       OFFSET 12.922000 0.000000 0.000000
       CHANNELS 3 Yrotation Xrotation Zrotation
       JOINT LeftElbow
       {
        OFFSET 0.000000 -27.880900 0.000000
        CHANNELS 3 Yrotation Xrotation Zrotation
        JOINT LeftWrist
        {
         OFFSET 0.000000 -22.758700 0.008200
         CHANNELS 3 Yrotation Xrotation Zrotation
         End Site
         {
          OFFSET 0.000000 -16.965000 0.000000
         }
        }
       }
      }
     }
    }
   }
  }
 }
 JOINT RightHip
 {
  OFFSET -12.026800 0.080100 0.008100
  CHANNELS 3 Yrotation Xrotation Zrotation
  JOINT RightKnee
  {
   OFFSET 0.000000 -42.600800 -0.000200
   CHANNELS 3 Yrotation Xrotation Zrotation
   JOINT RightAnkle
   {
    OFFSET 0.000000 -38.219300 0.054300
    CHANNELS 3 Yrotation Xrotation Zrotation
    JOINT RightToe
    {
     OFFSET 0.000000 -9.685800 15.804700
     CHANNELS 3 Yrotation Xrotation Zrotation
     End Site
     {
      OFFSET 0.000000 -1.422300 5.761700
     }
    }
   }
  }
 }
 JOINT LeftHip
 {
  OFFSET 12.026800 0.080100 0.008100
  CHANNELS 3 Yrotation Xrotation Zrotation
  JOINT LeftKnee
  {
   OFFSET 0.000000 -42.600800 -0.000200
   CHANNELS 3 Yrotation Xrotation Zrotation
   JOINT LeftAnkle
   {
    OFFSET 0.000000 -38.219300 0.054300
    CHANNELS 3 Yrotation Xrotation Zrotation
    JOINT LeftToe
    {
     OFFSET 0.000000 -9.685800 15.804700
     CHANNELS 3 Yrotation Xrotation Zrotation
     End Site
     {
      OFFSET 0.000000 -1.422300 5.761700
     }
    }
   }
  }
 }
}
MOTION
Frames: 16
Frame Time: 0.008333
0.000000 90.254400 0.000000 0.000000 -5.767877 0.000000 0.000000 11.653817 0.000000 0.000000 -5.885947 0.000000 0.000000 -0.000000 0.000000 0.000000 -0.000000 0.000000 0.000000 12.528835 0.000000 0.000000 0.711642 0.000000 0.000000 -0.000000 0.000000 0.000000 0.000000 -90.000000 0.000000 -2.309062 0.000000 0.000000 2.309062 0.000000 0.000000 -0.000000 0.000000 0.000000 -0.000000 90.000000 0.000000 -2.309062 0.000000 0.000000 2.309062 0.000000 0.000000 8.520406 0.000000 0.000000 1.905762 0.000000 -0.000000 -4.658285 0.000000 0.000000 -0.000000 0.000000 0.000000 8.520406 0.000000 0.000000 1.905762 0.000000 -0.000000 -4.658285 0.000000 0.000000 -0.000000 0.000000
-7.503285 151.690700 12.207478 167.504947 -16.886338 0.152744 1.497577 15.064667 0.400254 0.147368 1.405437 0.059401 0.224540 2.347222 0.107704 1.458059 13.502632 0.740283 -1.186591 16.183299 -0.631374 -1.105281 -8.755180 -0.378892 4.335235 -1.409533 0.847511 20.128710 -19.197926 -12.527569 52.369801 -44.586244 -26.000411 16.112537 1.837336 -31.715197 -8.485914 0.024235 -2.276255 -3.468301 -22.742737 8.532008 -22.594610 -54.563573 2.434957 -13.430201 9.818512 2.551090 -0.093980 -56.775449 12.313426 -41.837995 84.814448 -47.522493 -4.089334 -15.166168 7.502862 0.189029 -0.275223 0.102945 24.537759 -48.117423 -23.384093 58.225187 76.132958 70.096769 5.176932 -16.964813 -8.891970 0.246280 0.439502 0.152919
-7.886704 144.490513 13.717655 167.497185 -16.919546 -0.003342 1.554965 15.097803 0.565162 0.150988 1.408508 0.058943 0.228673 2.351786 0.106771 1.451210 13.498652 0.743279 -1.180927 16.191619 -0.641373 -1.110642 -8.760559 -0.374696 4.330328 -1.413345 0.848869 20.106317 -19.173547 -12.523565 52.354489 -44.637938 -26.007913 16.033673 1.788126 -31.730952 -8.481035 0.030685 -2.282824 -3.471800 -22.751816 8.538066 -22.598554 -54.573585 2.429769 -13.437079 9.823635 2.551461 -0.351707 -56.770349 12.636730 -42.264981 84.831795 -47.950937 -4.026413 -15.284010 7.538809 0.117573 -0.201209 0.072007 24.398604 -48.133786 -23.160025 58.108219 76.135312 70.001784 5.256655 -16.780332 -8.849417 0.144362 0.277054 0.088562
-8.205604 138.560303 14.963220 167.492444 -16.936812 -0.123291 1.604679 15.118124 0.691854 0.145370 1.407705 0.059687 0.234107 2.355810 0.106411 1.445355 13.496166 0.745329 -1.175782 16.198076 -0.652030 -1.103930 -8.755592 -0.384857 4.336192 -1.402719 0.846472 20.078927 -19.165708 -12.522190 52.374991 -44.664143 -26.031902 15.993774 1.764648 -31.742462 -8.480665 0.029803 -2.284755 -3.463916 -22.754694 8.537396 -22.555213 -54.602056 2.385044 -13.476841 9.840763 2.537364 -0.551820 -56.775008 12.883176 -42.599126 84.842749 -48.285377 -3.982403 -15.387237 7.570218 0.063291 -0.125235 0.038765 24.284390 -48.154109 -22.984504 58.020786 76.134854 69.922083 5.305301 -16.638328 -8.813414 0.069974 0.148917 0.042911
-8.437354 134.276815 15.864706 167.495707 -16.940682 -0.209911 1.629204 15.122807 0.781246 0.145786 1.410436 0.057329 0.234027 2.354502 0.108310 1.451657 13.510107 0.740086 -1.174709 16.193157 -0.655313 -1.094214 -8.751562 -0.394652 4.346558 -1.391982 0.848590 20.044840 -19.171559 -12.524605 52.358342 -44.713219 -26.034964 16.014382 1.763812 -31.738385 -8.485120 0.017150 -2.277433 -3.454693 -22.753035 8.531693 -22.555563 -54.617210 2.377876 -13.448254 9.849734 2.540423 -0.702297 -56.787682 13.059301 -42.895127 84.837925 -48.586116 -3.937124 -15.451147 7.586360 0.025921 -0.065788 0.015879 24.204704 -48.172789 -22.868707 57.943489 76.133675 69.852518 5.333974 -16.545739 -8.788835 0.026331 0.065598 0.016142
-8.584064 131.571563 16.433949 167.506241 -16.943693 -0.268232 1.642876 15.134137 0.834284 0.140180 1.403618 0.061992 0.235721 2.359946 0.106654 1.457553 13.513329 0.740632 -1.173178 16.196192 -0.662391 -1.089797 -8.750343 -0.403912 4.347229 -1.389485 0.851018 20.022848 -19.161249 -12.526051 52.339695 -44.758698 -26.043904 16.004293 1.741479 -31.732215 -8.480821 0.014915 -2.279611 -3.459458 -22.751294 8.535517 -22.566220 -54.630199 2.381641 -13.445065 9.853131 2.541422 -0.813141 -56.786129 13.172649 -42.979637 84.832699 -48.675606 -3.912591 -15.498067 7.592401 0.005637 -0.020814 0.003454 24.142068 -48.184765 -22.792131 57.893223 76.132650 69.805761 5.348454 -16.493162 -8.777331 0.007354 0.019172 0.004507
-8.668322 130.083730 16.746282 167.511647 -16.945716 -0.289193 1.644494 15.136621 0.853791 0.141870 1.405215 0.061011 0.239632 2.364291 0.104677 1.461971 13.519688 0.742399 -1.172702 16.198384 -0.669045 -1.073846 -8.729363 -0.433822 4.341931 -1.396427 0.853837 20.008388 -19.142419 -12.528326 52.328115 -44.802911 -26.056525 15.988374 1.717211 -31.725417 -8.470399 0.019835 -2.288469 -3.472265 -22.758503 8.546466 -22.541422 -54.653680 2.354723 -13.437169 9.863901 2.543750 -0.855550 -56.784422 13.214770 -43.015249 84.826824 -48.715440 -3.908153 -15.503327 7.591406 0.002230 -0.009475 0.001367 24.123140 -48.185535 -22.767952 57.866144 76.132136 69.783724 5.349949 -16.477857 -8.774830 0.006572 0.005371 0.004028
-8.709821 129.375324 16.894608 167.520508 -16.947620 -0.299435 1.646492 15.143221 0.859471 0.148892 1.412778 0.056783 0.241072 2.368674 0.105129 1.458641 13.516369 0.747102 -1.171771 16.199623 -0.673950 -1.071733 -8.727884 -0.439152 4.337510 -1.405107 0.858013 19.996285 -19.124916 -12.533433 52.276623 -44.867312 -26.032943 16.014284 1.709078 -31.725224 -8.475407 0.016555 -2.284638 -3.465493 -22.760122 8.545131 -22.471223 -54.681829 2.281553 -13.431963 9.871269 2.539569 -0.879035 -56.781678 13.232552 -43.023537 84.823736 -48.727552 -3.916546 -15.502835 7.589289 -0.000545 -0.004707 -0.000334 24.142050 -48.171140 -22.784215 57.798645 76.127609 69.737130 5.352694 -16.468795 -8.763740 0.004009 0.000838 0.002457
-8.728327 129.085589 16.954922 167.529792 -16.948967 -0.303904 1.651182 15.153169 0.856421 0.145678 1.410479 0.059495 0.236525 2.366370 0.108195 1.466068 13.524673 0.742913 -1.170797 16.201016 -0.677345 -1.069904 -8.726358 -0.442998 4.330157 -1.406617 0.863825 19.989069 -19.117304 -12.541377 52.260326 -44.903316 -26.028517 16.012742 1.698657 -31.732384 -8.486133 0.014995 -2.275678 -3.438078 -22.756736 8.533518 -22.450610 -54.710014 2.240920 -13.436391 9.881481 2.545317 -0.890644 -56.778693 13.235556 -43.003369 84.822250 -48.711069 -3.922764 -15.503774 7.592189 -0.000374 -0.005507 -0.000229 24.145308 -48.164054 -22.788802 57.764578 76.128903 69.695448 5.352715 -16.466550 -8.740880 -0.001419 0.000635 -0.000869
-8.735685 128.984771 16.975888 167.534705 -16.948962 -0.307938 1.658972 15.159580 0.855549 0.143192 1.409709 0.061007 0.233698 2.364836 0.109957 1.466825 13.526010 0.742718 -1.170428 16.201885 -0.679010 -1.069124 -8.725472 -0.444888 4.331580 -1.405222 0.864173 19.977432 -19.109832 -12.546169 52.256545 -44.927336 -26.030624 16.015919 1.696108 -31.735469 -8.490830 0.019296 -2.271934 -3.429055 -22.762491 8.532092 -22.419508 -54.724229 2.203032 -13.448534 9.889095 2.548476 -0.895284 -56.775079 13.237838 -42.970421 84.818685 -48.679021 -3.929482 -15.505448 7.594136 0.001572 -0.005778 0.000963 24.149072 -48.160102 -22.791939 57.738489 76.128937 69.670410 5.351503 -16.465852 -8.734755 -0.000957 0.000284 -0.000586
-8.739228 128.955174 16.982297 167.538064 -16.946564 -0.310783 1.661371 15.160359 0.855838 0.143086 1.410621 0.059822 0.238702 2.367772 0.108424 1.462667 13.523868 0.745394 -1.169859 16.202963 -0.681548 -1.067960 -8.724405 -0.447709 4.332997 -1.396464 0.861898 19.965553 -19.112835 -12.549032 52.255748 -44.946707 -26.031276 15.996235 1.673873 -31.751884 -8.491869 0.022976 -2.269193 -3.428555 -22.767999 8.533632 -22.384496 -54.735832 2.168997 -13.461552 9.893892 2.548962 -0.893758 -56.777053 13.234286 -42.941030 84.814389 -48.649654 -3.930284 -15.500994 7.597710 0.001633 -0.008679 0.001001 24.154778 -48.160066 -22.797655 57.723382 76.127869 69.657954 5.348516 -16.463857 -8.731197 0.000645 -0.000001 0.000396
-8.739994 128.948035 16.983893 167.549511 -16.945517 -0.321713 1.653749 15.160122 0.863214 0.143069 1.411227 0.058656 0.241439 2.371587 0.106891 1.457431 13.529538 0.743342 -1.165599 16.202762 -0.687092 -1.064353 -8.721433 -0.454079 4.336135 -1.395240 0.864153 19.959128 -19.117824 -12.552904 52.241757 -44.969498 -26.008231 15.970459 1.642679 -31.792860 -8.487261 0.019746 -2.263801 -3.432551 -22.770213 8.538061 -22.355369 -54.749535 2.142439 -13.445174 9.897704 2.552672 -0.906582 -56.774461 13.241140 -42.939034 84.805850 -48.646635 -3.929164 -15.499736 7.600923 0.000825 -0.010865 0.000505 24.146070 -48.162003 -22.793638 57.713290 76.128582 69.652983 5.343114 -16.467224 -8.728588 0.002317 0.000664 0.001420
-8.741948 128.946606 16.983812 167.552587 -16.944735 -0.324008 1.651760 15.160915 0.859813 0.142775 1.410551 0.061304 0.241338 2.372812 0.105222 1.457409 13.528818 0.747227 -1.162891 16.208031 -0.693128 -1.059432 -8.717456 -0.460664 4.337695 -1.388531 0.863429 19.952939 -19.114691 -12.559334 52.249127 -44.983199 -26.012349 15.961732 1.630536 -31.799070 -8.485444 0.025349 -2.264911 -3.436031 -22.770495 8.544157 -22.333653 -54.767060 2.120735 -13.450349 9.908055 2.556380 -0.903964 -56.772375 13.238009 -42.940823 84.800209 -48.647932 -3.931049 -15.500266 7.604732 0.000012 -0.010836 0.000007 24.148859 -48.161480 -22.794332 57.706082 76.131437 69.649340 5.316182 -16.473621 -8.715027 -0.000840 -0.000173 -0.000515
-8.742010 128.946457 16.983438 167.558189 -16.945540 -0.333827 1.651667 15.164997 0.862800 0.142104 1.410361 0.061850 0.240004 2.372559 0.106080 1.456942 13.527126 0.752235 -1.160170 16.214746 -0.706969 -1.047088 -8.711363 -0.478233 4.339243 -1.387348 0.862996 19.949122 -19.105159 -12.566987 52.241416 -44.993663 -26.004661 15.937551 1.573251 -31.819689 -8.482137 0.031790 -2.269366 -3.438110 -22.771186 8.551288 -22.326909 -54.780421 2.111438 -13.442164 9.910277 2.561202 -0.910458 -56.762731 13.249202 -43.069836 84.772265 -48.773755 -3.916914 -15.503904 7.606810 0.001123 -0.006803 0.000688 24.136869 -48.163266 -22.783489 57.699374 76.132579 69.640009 5.329146 -16.480828 -8.714954 0.000379 -0.001615 0.000232
-8.743590 128.946237 16.983494 167.567658 -16.942998 -0.339023 1.645673 15.162538 0.862514 0.141915 1.410019 0.061962 0.238269 2.372665 0.108258 1.450365 13.527759 0.753860 -1.154105 16.214885 -0.715555 -1.042156 -8.707293 -0.488579 4.345936 -1.379746 0.855056 19.949228 -19.109618 -12.568523 52.229739 -44.991218 -25.990119 15.904879 1.506537 -31.847486 -8.471687 0.038843 -2.277693 -3.441252 -22.771763 8.559573 -22.321763 -54.793916 2.104301 -13.434058 9.910528 2.559585 -0.917821 -56.762207 13.253495 -43.106528 84.763498 -48.810095 -3.916624 -15.503879 7.608684 0.002320 -0.006267 0.001421 24.137132 -48.162423 -22.786797 57.658277 76.132679 69.600737 5.331564 -16.479184 -8.707592 0.000003 0.000186 0.000002
-8.743984 128.946061 16.983794 167.574873 -16.940526 -0.347946 1.643265 15.159244 0.866940 0.142678 1.409560 0.060877 0.235970 2.373172 0.111101 1.453545 13.522517 0.747285 -1.154834 16.220626 -0.708638 -1.036895 -8.702604 -0.503243 4.348787 -1.367907 0.855628 19.940663 -19.110650 -12.564833 52.224106 -44.990519 -25.983564 15.875233 1.448453 -31.863727 -8.473245 0.049458 -2.272539 -3.444124 -22.768960 8.566671 -22.306299 -54.807443 2.088067 -13.439196 9.915495 2.557900 -0.927100 -56.762605 13.264623 -43.133387 84.756483 -48.833940 -3.919415 -15.501478 7.609052 0.002876 -0.005187 0.001762 24.145599 -48.164565 -22.788656 57.631353 76.140229 69.582797 5.335188 -16.480055 -8.702578 0.002140 -0.000212 0.001312
